<?xml version="1.0" encoding="UTF-8" standalone="no"?>
<!-- Created with Inkscape (http://www.inkscape.org/) -->

<svg
   xmlns:dc="http://purl.org/dc/elements/1.1/"
   xmlns:cc="http://creativecommons.org/ns#"
   xmlns:rdf="http://www.w3.org/1999/02/22-rdf-syntax-ns#"
   xmlns:svg="http://www.w3.org/2000/svg"
   xmlns="http://www.w3.org/2000/svg"
   xmlns:sodipodi="http://sodipodi.sourceforge.net/DTD/sodipodi-0.dtd"
   xmlns:inkscape="http://www.inkscape.org/namespaces/inkscape"
   width="1052.3622"
   height="744.09448"
   id="svg10302"
   version="1.1"
   inkscape:version="0.48.1 r9760"
   sodipodi:docname="simple-nested-function-2.svg">
  <defs
     id="defs10304">
    <marker
       inkscape:stockid="DotS"
       orient="auto"
       refY="0"
       refX="0"
       id="DotS"
       style="overflow:visible">
      <path
         inkscape:connector-curvature="0"
         id="path3941"
         d="m -2.5,-1 c 0,2.76 -2.24,5 -5,5 -2.76,0 -5,-2.24 -5,-5 0,-2.76 2.24,-5 5,-5 2.76,0 5,2.24 5,5 z"
         style="fill-rule:evenodd;stroke:#000000;stroke-width:1pt;marker-start:none;marker-end:none"
         transform="matrix(0.2,0,0,0.2,1.48,0.2)" />
    </marker>
    <marker
       inkscape:stockid="Arrow1Send"
       orient="auto"
       refY="0"
       refX="0"
       id="Arrow1Send"
       style="overflow:visible">
      <path
         inkscape:connector-curvature="0"
         id="path3888"
         d="M 0,0 5,-5 -12.5,0 5,5 0,0 z"
         style="fill-rule:evenodd;stroke:#000000;stroke-width:1pt;marker-start:none"
         transform="matrix(-0.2,0,0,-0.2,-1.2,0)" />
    </marker>
    <marker
       inkscape:stockid="DotS"
       orient="auto"
       refY="0"
       refX="0"
       id="DotS-0"
       style="overflow:visible">
      <path
         inkscape:connector-curvature="0"
         id="path3941-3"
         d="m -2.5,-1 c 0,2.76 -2.24,5 -5,5 -2.76,0 -5,-2.24 -5,-5 0,-2.76 2.24,-5 5,-5 2.76,0 5,2.24 5,5 z"
         style="fill-rule:evenodd;stroke:#000000;stroke-width:1pt;marker-start:none;marker-end:none"
         transform="matrix(0.2,0,0,0.2,1.48,0.2)" />
    </marker>
    <marker
       inkscape:stockid="Arrow1Send"
       orient="auto"
       refY="0"
       refX="0"
       id="Arrow1Send-4"
       style="overflow:visible">
      <path
         inkscape:connector-curvature="0"
         id="path3888-2"
         d="M 0,0 5,-5 -12.5,0 5,5 0,0 z"
         style="fill-rule:evenodd;stroke:#000000;stroke-width:1pt;marker-start:none"
         transform="matrix(-0.2,0,0,-0.2,-1.2,0)" />
    </marker>
    <marker
       inkscape:stockid="DotS"
       orient="auto"
       refY="0"
       refX="0"
       id="DotS-6"
       style="overflow:visible">
      <path
         inkscape:connector-curvature="0"
         id="path3941-6"
         d="m -2.5,-1 c 0,2.76 -2.24,5 -5,5 -2.76,0 -5,-2.24 -5,-5 0,-2.76 2.24,-5 5,-5 2.76,0 5,2.24 5,5 z"
         style="fill-rule:evenodd;stroke:#000000;stroke-width:1pt;marker-start:none;marker-end:none"
         transform="matrix(0.2,0,0,0.2,1.48,0.2)" />
    </marker>
    <marker
       inkscape:stockid="Arrow1Send"
       orient="auto"
       refY="0"
       refX="0"
       id="Arrow1Send-7"
       style="overflow:visible">
      <path
         inkscape:connector-curvature="0"
         id="path3888-3"
         d="M 0,0 5,-5 -12.5,0 5,5 0,0 z"
         style="fill-rule:evenodd;stroke:#000000;stroke-width:1pt;marker-start:none"
         transform="matrix(-0.2,0,0,-0.2,-1.2,0)" />
    </marker>
    <marker
       inkscape:stockid="DotS"
       orient="auto"
       refY="0"
       refX="0"
       id="DotS-1"
       style="overflow:visible">
      <path
         inkscape:connector-curvature="0"
         id="path3941-63"
         d="m -2.5,-1 c 0,2.76 -2.24,5 -5,5 -2.76,0 -5,-2.24 -5,-5 0,-2.76 2.24,-5 5,-5 2.76,0 5,2.24 5,5 z"
         style="fill-rule:evenodd;stroke:#000000;stroke-width:1pt;marker-start:none;marker-end:none"
         transform="matrix(0.2,0,0,0.2,1.48,0.2)" />
    </marker>
    <marker
       inkscape:stockid="Arrow1Send"
       orient="auto"
       refY="0"
       refX="0"
       id="Arrow1Send-8"
       style="overflow:visible">
      <path
         inkscape:connector-curvature="0"
         id="path3888-6"
         d="M 0,0 5,-5 -12.5,0 5,5 0,0 z"
         style="fill-rule:evenodd;stroke:#000000;stroke-width:1pt;marker-start:none"
         transform="matrix(-0.2,0,0,-0.2,-1.2,0)" />
    </marker>
    <marker
       inkscape:stockid="DotS"
       orient="auto"
       refY="0"
       refX="0"
       id="DotS-1-7"
       style="overflow:visible">
      <path
         inkscape:connector-curvature="0"
         id="path3941-63-9"
         d="m -2.5,-1 c 0,2.76 -2.24,5 -5,5 -2.76,0 -5,-2.24 -5,-5 0,-2.76 2.24,-5 5,-5 2.76,0 5,2.24 5,5 z"
         style="fill-rule:evenodd;stroke:#000000;stroke-width:1pt;marker-start:none;marker-end:none"
         transform="matrix(0.2,0,0,0.2,1.48,0.2)" />
    </marker>
    <marker
       inkscape:stockid="Arrow1Send"
       orient="auto"
       refY="0"
       refX="0"
       id="Arrow1Send-8-4"
       style="overflow:visible">
      <path
         inkscape:connector-curvature="0"
         id="path3888-6-4"
         d="M 0,0 5,-5 -12.5,0 5,5 0,0 z"
         style="fill-rule:evenodd;stroke:#000000;stroke-width:1pt;marker-start:none"
         transform="matrix(-0.2,0,0,-0.2,-1.2,0)" />
    </marker>
    <marker
       inkscape:stockid="DotS"
       orient="auto"
       refY="0"
       refX="0"
       id="DotS-4"
       style="overflow:visible">
      <path
         inkscape:connector-curvature="0"
         id="path3941-4"
         d="m -2.5,-1 c 0,2.76 -2.24,5 -5,5 -2.76,0 -5,-2.24 -5,-5 0,-2.76 2.24,-5 5,-5 2.76,0 5,2.24 5,5 z"
         style="fill-rule:evenodd;stroke:#000000;stroke-width:1pt;marker-start:none;marker-end:none"
         transform="matrix(0.2,0,0,0.2,1.48,0.2)" />
    </marker>
    <marker
       inkscape:stockid="Arrow1Send"
       orient="auto"
       refY="0"
       refX="0"
       id="Arrow1Send-79"
       style="overflow:visible">
      <path
         inkscape:connector-curvature="0"
         id="path3888-8"
         d="M 0,0 5,-5 -12.5,0 5,5 0,0 z"
         style="fill-rule:evenodd;stroke:#000000;stroke-width:1pt;marker-start:none"
         transform="matrix(-0.2,0,0,-0.2,-1.2,0)" />
    </marker>
    <marker
       inkscape:stockid="DotS"
       orient="auto"
       refY="0"
       refX="0"
       id="DotS-11"
       style="overflow:visible">
      <path
         inkscape:connector-curvature="0"
         id="path3941-9"
         d="m -2.5,-1 c 0,2.76 -2.24,5 -5,5 -2.76,0 -5,-2.24 -5,-5 0,-2.76 2.24,-5 5,-5 2.76,0 5,2.24 5,5 z"
         style="fill-rule:evenodd;stroke:#000000;stroke-width:1pt;marker-start:none;marker-end:none"
         transform="matrix(0.2,0,0,0.2,1.48,0.2)" />
    </marker>
    <marker
       inkscape:stockid="Arrow1Send"
       orient="auto"
       refY="0"
       refX="0"
       id="Arrow1Send-0"
       style="overflow:visible">
      <path
         inkscape:connector-curvature="0"
         id="path3888-0"
         d="M 0,0 5,-5 -12.5,0 5,5 0,0 z"
         style="fill-rule:evenodd;stroke:#000000;stroke-width:1pt;marker-start:none"
         transform="matrix(-0.2,0,0,-0.2,-1.2,0)" />
    </marker>
  </defs>
  <sodipodi:namedview
     id="base"
     pagecolor="#ffffff"
     bordercolor="#666666"
     borderopacity="1.0"
     inkscape:pageopacity="0.0"
     inkscape:pageshadow="2"
     inkscape:zoom="0.86548149"
     inkscape:cx="526.18109"
     inkscape:cy="372.04724"
     inkscape:document-units="px"
     inkscape:current-layer="layer1"
     showgrid="false"
     showguides="true"
     inkscape:guide-bbox="true"
     inkscape:window-width="1600"
     inkscape:window-height="842"
     inkscape:window-x="0"
     inkscape:window-y="26"
     inkscape:window-maximized="1" />
  <metadata
     id="metadata10307">
    <rdf:RDF>
      <cc:Work
         rdf:about="">
        <dc:format>image/svg+xml</dc:format>
        <dc:type
           rdf:resource="http://purl.org/dc/dcmitype/StillImage" />
        <dc:title />
      </cc:Work>
    </rdf:RDF>
  </metadata>
  <g
     inkscape:label="Layer 1"
     inkscape:groupmode="layer"
     id="layer1"
     transform="translate(0,-308.2677)">
    <rect
       style="fill:#83ff9a;fill-opacity:1;stroke:none;display:inline"
       id="rect3755-1-5"
       width="294.46817"
       height="160.01164"
       x="357"
       y="347.35052"
       ry="6.1249409"
       rx="6.1249394" />
    <text
       xml:space="preserve"
       style="font-size:24px;font-style:normal;font-weight:normal;line-height:125%;letter-spacing:0px;word-spacing:0px;fill:#000000;fill-opacity:1;stroke:none;font-family:Sans"
       x="264.59259"
       y="233.3961"
       id="text10310"
       sodipodi:linespacing="125%"
       transform="translate(0,308.2677)"><tspan
         sodipodi:role="line"
         id="tspan10312"
         x="264.59259"
         y="233.3961" /></text>
    <rect
       style="fill:#83ff9a;fill-opacity:1;stroke:#ffffff;stroke-width:3;stroke-miterlimit:4;stroke-opacity:1;stroke-dasharray:none;display:inline"
       id="rect3755-1-5-1"
       width="267.89337"
       height="94.152351"
       x="390.50732"
       y="382.591"
       ry="6.1249409"
       rx="6.1249394" />
    <text
       xml:space="preserve"
       style="font-size:24px;font-style:normal;font-weight:normal;line-height:125%;letter-spacing:0px;word-spacing:0px;fill:#000000;fill-opacity:1;stroke:none;font-family:Sans"
       x="368.58096"
       y="374.12698"
       id="text10314"
       sodipodi:linespacing="125%"><tspan
         sodipodi:role="line"
         id="tspan10316"
         x="368.58096"
         y="374.12698">function f(x) {</tspan><tspan
         sodipodi:role="line"
         x="368.58096"
         y="404.12698"
         id="tspan10318">    return function (y) {</tspan><tspan
         sodipodi:role="line"
         x="368.58096"
         y="434.12698"
         id="tspan10320">        return x+y;</tspan><tspan
         sodipodi:role="line"
         x="368.58096"
         y="464.12698"
         id="tspan10322">    }</tspan><tspan
         sodipodi:role="line"
         x="368.58096"
         y="494.12698"
         id="tspan10324">}</tspan></text>
    <rect
       style="fill:#83d4ff;fill-opacity:1;stroke:none"
       id="rect3755-5"
       width="203.10814"
       height="72.108315"
       x="82.004997"
       y="544.59741"
       ry="11.065418"
       rx="11.065418" />
    <text
       xml:space="preserve"
       style="font-size:23.65474701px;font-style:normal;font-weight:normal;text-align:end;line-height:125%;letter-spacing:0px;word-spacing:0px;text-anchor:end;fill:#000000;fill-opacity:1;stroke:none;font-family:Sans"
       x="218.6447"
       y="569.28076"
       id="text3761-6"
       sodipodi:linespacing="125%"><tspan
         sodipodi:role="line"
         id="tspan3763-0"
         x="218.6447"
         y="569.28076">[[Code]]:</tspan></text>
    <text
       xml:space="preserve"
       style="font-size:23.65474701px;font-style:normal;font-weight:normal;text-align:end;line-height:125%;letter-spacing:0px;word-spacing:0px;text-anchor:end;fill:#000000;fill-opacity:1;stroke:none;font-family:Sans"
       x="218.6447"
       y="604.10504"
       id="text3765-0"
       sodipodi:linespacing="125%"><tspan
         sodipodi:role="line"
         id="tspan3767-2"
         x="218.6447"
         y="604.10504">[[Scope]]:</tspan></text>
    <path
       style="fill:none;stroke:#ffffff;stroke-width:2.95684338;stroke-linecap:butt;stroke-linejoin:miter;stroke-miterlimit:4;stroke-opacity:1;stroke-dasharray:none"
       d="m 82.004961,581.78895 204.966959,0"
       id="path3773-4-3"
       inkscape:connector-curvature="0" />
    <text
       xml:space="preserve"
       style="font-size:24px;font-style:normal;font-weight:normal;line-height:125%;letter-spacing:0px;word-spacing:0px;fill:#000000;fill-opacity:1;stroke:none;font-family:Sans"
       x="56.615883"
       y="568.23859"
       id="text10404"
       sodipodi:linespacing="125%"><tspan
         sodipodi:role="line"
         id="tspan10406"
         x="56.615883"
         y="568.23859">f:</tspan></text>
    <path
       style="fill:none;stroke:#000000;stroke-width:3.44310403;stroke-linecap:butt;stroke-linejoin:miter;stroke-miterlimit:4;stroke-opacity:1;stroke-dasharray:none;marker-start:url(#DotS);marker-end:url(#Arrow1Send);display:inline"
       d="m 244.29423,562.63612 c 0,-76.57467 39.84925,-142.0863 100.5444,-142.0863"
       id="path3868-4"
       inkscape:connector-curvature="0"
       sodipodi:nodetypes="cc" />
    <rect
       style="fill:#ffd257;fill-opacity:1;stroke:none;display:inline"
       id="rect3755-3-0-6-1"
       width="573.17145"
       height="79.280823"
       x="104.49155"
       y="844.61194"
       ry="4.0393105"
       rx="4.0393105" />
    <text
       xml:space="preserve"
       style="font-size:24px;font-style:normal;font-weight:normal;line-height:125%;letter-spacing:0px;word-spacing:0px;fill:#000000;fill-opacity:1;stroke:none;font-family:Sans"
       x="318.91074"
       y="894.33972"
       id="text10970"
       sodipodi:linespacing="125%"><tspan
         sodipodi:role="line"
         id="tspan10972"
         x="318.91074"
         y="894.33972">global scope</tspan></text>
    <path
       style="fill:none;stroke:#000000;stroke-width:3.44310403;stroke-linecap:butt;stroke-linejoin:miter;stroke-miterlimit:4;stroke-opacity:1;stroke-dasharray:none;marker-start:url(#DotS);marker-end:url(#Arrow1Send);display:inline"
       d="m 244.29423,597.65198 c 87.85169,0 100.5444,169.81816 100.5444,240.35978"
       id="path3868-4-0"
       inkscape:connector-curvature="0"
       sodipodi:nodetypes="cc" />
    <rect
       style="fill:#ff9457;fill-opacity:1;stroke:none;display:inline"
       id="rect3755-3-0-6-1-1"
       width="282.48059"
       height="79.280823"
       x="741.84485"
       y="844.61194"
       ry="4.0393105"
       rx="4.0393105" />
    <text
       xml:space="preserve"
       style="font-size:24px;font-style:normal;font-weight:normal;line-height:125%;letter-spacing:0px;word-spacing:0px;fill:#000000;fill-opacity:1;stroke:none;font-family:Sans"
       x="810.79218"
       y="890.87341"
       id="text10970-7"
       sodipodi:linespacing="125%"><tspan
         sodipodi:role="line"
         id="tspan10972-4"
         x="810.79218"
         y="890.87341">eval: &quot;g(1);&quot;</tspan></text>
    <rect
       style="fill:#ff9457;fill-opacity:1;stroke:none;display:inline"
       id="rect3755-3-0-6-1-1-5"
       width="282.48059"
       height="79.280823"
       x="741.84485"
       y="760.26587"
       ry="4.0393105"
       rx="4.0393105" />
    <text
       xml:space="preserve"
       style="font-size:24px;font-style:normal;font-weight:normal;line-height:125%;letter-spacing:0px;word-spacing:0px;fill:#000000;fill-opacity:1;stroke:none;font-family:Sans"
       x="858.82733"
       y="807.44141"
       id="text11087"
       sodipodi:linespacing="125%"><tspan
         sodipodi:role="line"
         x="858.82733"
         y="807.44141"
         id="tspan11091">g(1)</tspan></text>
    <path
       style="fill:none;stroke:#000000;stroke-width:3;stroke-linecap:butt;stroke-linejoin:miter;stroke-miterlimit:4;stroke-opacity:1;stroke-dasharray:none;marker-start:url(#DotS-1);marker-end:url(#Arrow1Send-8)"
       d="m 757.9596,882.51453 -78.56899,0"
       id="path11163"
       inkscape:connector-curvature="0"
       sodipodi:nodetypes="cc" />
    <g
       id="g13157"
       transform="translate(-73.404068,132.87401)">
      <rect
         rx="4.0393105"
         ry="4.0393105"
         y="627.96484"
         x="497.94867"
         height="79.280823"
         width="253.11839"
         id="rect3755-3-0-6-1-3"
         style="fill:#ffd257;fill-opacity:1;stroke:none;display:inline" />
      <text
         sodipodi:linespacing="125%"
         id="text13153"
         y="676.51147"
         x="598.9317"
         style="font-size:24px;font-style:normal;font-weight:normal;line-height:125%;letter-spacing:0px;word-spacing:0px;fill:#000000;fill-opacity:1;stroke:none;font-family:Sans"
         xml:space="preserve"><tspan
           y="676.51147"
           x="598.9317"
           id="tspan13155"
           sodipodi:role="line">x:42</tspan></text>
    </g>
    <path
       style="fill:none;stroke:#000000;stroke-width:3;stroke-linecap:butt;stroke-linejoin:miter;stroke-miterlimit:4;stroke-opacity:1;stroke-dasharray:none;marker-start:url(#DotS-1);marker-end:url(#Arrow1Send-8)"
       d="m 757.9596,799.90626 c -63.66385,0 -2.209,-84.34611 -78.56899,-84.34611"
       id="path11163-7"
       inkscape:connector-curvature="0"
       sodipodi:nodetypes="cc" />
    <g
       id="g13249"
       transform="translate(-180.24649,18.190125)">
      <rect
         rx="11.065418"
         ry="11.065418"
         y="526.40729"
         x="529.66034"
         height="72.108315"
         width="203.10814"
         id="rect3755-5-6"
         style="fill:#83d4ff;fill-opacity:1;stroke:none" />
      <text
         sodipodi:linespacing="125%"
         id="text3761-6-0"
         y="551.09064"
         x="666.30005"
         style="font-size:23.65474701px;font-style:normal;font-weight:normal;text-align:end;line-height:125%;letter-spacing:0px;word-spacing:0px;text-anchor:end;fill:#000000;fill-opacity:1;stroke:none;font-family:Sans"
         xml:space="preserve"><tspan
           y="551.09064"
           x="666.30005"
           id="tspan3763-0-7"
           sodipodi:role="line">[[Code]]:</tspan></text>
      <text
         sodipodi:linespacing="125%"
         id="text3765-0-7"
         y="585.91492"
         x="666.30005"
         style="font-size:23.65474701px;font-style:normal;font-weight:normal;text-align:end;line-height:125%;letter-spacing:0px;word-spacing:0px;text-anchor:end;fill:#000000;fill-opacity:1;stroke:none;font-family:Sans"
         xml:space="preserve"><tspan
           y="585.91492"
           x="666.30005"
           id="tspan3767-2-6"
           sodipodi:role="line">[[Scope]]:</tspan></text>
      <path
         inkscape:connector-curvature="0"
         id="path3773-4-3-4"
         d="m 529.66033,563.59885 204.96697,0"
         style="fill:none;stroke:#ffffff;stroke-width:2.95684338;stroke-linecap:butt;stroke-linejoin:miter;stroke-miterlimit:4;stroke-opacity:1;stroke-dasharray:none" />
      <text
         sodipodi:linespacing="125%"
         id="text10404-3"
         y="550.04846"
         x="504.27124"
         style="font-size:24px;font-style:normal;font-weight:normal;line-height:125%;letter-spacing:0px;word-spacing:0px;fill:#000000;fill-opacity:1;stroke:none;font-family:Sans"
         xml:space="preserve"><tspan
           y="550.04846"
           x="504.27124"
           id="tspan10406-8"
           sodipodi:role="line">g:</tspan></text>
    </g>
    <path
       style="fill:none;stroke:#000000;stroke-width:3.44310403;stroke-linecap:butt;stroke-linejoin:miter;stroke-miterlimit:4;stroke-opacity:1;stroke-dasharray:none;marker-start:url(#DotS);marker-end:url(#Arrow1Send);display:inline"
       d="m 519.41417,562.98919 c 281.35913,0 218.3626,-139.77545 143.87288,-139.77545"
       id="path3868-4-4"
       inkscape:connector-curvature="0"
       sodipodi:nodetypes="cc" />
    <path
       style="fill:none;stroke:#000000;stroke-width:3.44310403;stroke-linecap:butt;stroke-linejoin:miter;stroke-miterlimit:4;stroke-opacity:1;stroke-dasharray:none;marker-start:url(#DotS);marker-end:url(#Arrow1Send);display:inline"
       d="m 519.41417,600.0585 c 0,53.16303 -64.68155,101.64801 -64.68155,154.85824"
       id="path3868-4-0-4"
       inkscape:connector-curvature="0"
       sodipodi:nodetypes="cc" />
    <rect
       style="fill:#ffd257;fill-opacity:1;stroke:none;display:inline"
       id="rect3755-3-0-6-1-3-6"
       width="159.52887"
       height="79.280823"
       x="518.13409"
       y="676.49274"
       ry="4.0393105"
       rx="4.0393105" />
    <text
       xml:space="preserve"
       style="font-size:24px;font-style:normal;font-weight:normal;line-height:125%;letter-spacing:0px;word-spacing:0px;fill:#000000;fill-opacity:1;stroke:none;font-family:Sans"
       x="580.72473"
       y="722.38513"
       id="text14762"
       sodipodi:linespacing="125%"><tspan
         sodipodi:role="line"
         id="tspan14764"
         x="580.72473"
         y="722.38513">y:1</tspan></text>
  </g>
</svg>
